Coordinates
version=1
nRows=24
nColumns=24
inDegrees=yes

Units are S.I. units (second, meters, Newtons, ...)
Angles are in degrees.

endheader
time	pelvis_tilt	pelvis_list	pelvis_rotation	pelvis_tx	pelvis_ty	pelvis_tz	hip_flexion_r	hip_adduction_r	hip_rotation_r	knee_angle_r	ankle_angle_r	subtalar_angle_r	mtp_angle_r	hip_flexion_l	hip_adduction_l	hip_rotation_l	knee_angle_l	ankle_angle_l	subtalar_angle_l	mtp_angle_l	lumbar_extension	lumbar_bending	lumbar_rotation
      4.11000000	    -10.98704940	     -4.95357169	     -0.84563473	      0.09967307	      0.96014348	      0.04710568	     22.06023277	      9.98221546	      3.44112432	    -20.20239856	      8.22885551	      0.00000000	      0.00000000	     24.57402100	     -9.24862905	     -4.31726698	    -61.54924147	     -8.08547683	      0.00000000	      0.00000000	      8.13733977	      4.56525435	     -0.89419888
      4.12000000	    -10.87711269	     -4.96196301	     -0.79045179	      0.09863625	      0.96071898	      0.04806252	     21.43874708	     10.05417812	      3.40838767	    -20.05027486	      8.36522161	      0.00000000	      0.00000000	     25.47919880	     -9.42593795	     -4.45204436	    -61.58073416	     -6.05238752	      0.00000000	      0.00000000	      7.97841211	      4.46849435	     -0.65459007
      4.13000000	    -10.82357675	     -4.89427074	     -0.71306415	      0.09765927	      0.96135642	      0.04893842	     20.79715190	     10.02713407	      3.36249386	    -19.73965877	      8.50335939	      0.00000000	      0.00000000	     26.34825573	     -9.46532627	     -4.54966143	    -61.24924350	     -4.35081872	      0.00000000	      0.00000000	      7.91074554	      4.28232081	     -0.46476014
      4.14000000	    -10.77350172	     -4.81305797	     -0.63413709	      0.09659931	      0.96199481	      0.04978068	     20.17445041	      9.97660240	      3.27913257	    -19.45601738	      8.60728376	      0.00000000	      0.00000000	     27.17391776	     -9.46558750	     -4.63862831	    -60.68677235	     -2.78735950	      0.00000000	      0.00000000	      7.83619640	      4.08599397	     -0.28132031
      4.15000000	    -10.75031403	     -4.73289662	     -0.56701363	      0.09552569	      0.96267871	      0.05058343	     19.58573988	      9.93052161	      3.20250394	    -19.18630161	      8.69889458	      0.00000000	      0.00000000	     27.92994603	     -9.42369482	     -4.68339980	    -59.79130606	     -1.49770702	      0.00000000	      0.00000000	      7.79268464	      3.90090638	     -0.11588319
      4.16000000	    -10.71102584	     -4.60106765	     -0.46283820	      0.09432776	      0.96330243	      0.05121927	     18.98175329	      9.80774760	      3.14400303	    -18.90092035	      8.76092348	      0.00000000	      0.00000000	     28.65554338	     -9.29854712	     -4.76571486	    -58.77874848	     -0.08609472	      0.00000000	      0.00000000	      7.70674423	      3.66748223	      0.01968792
      4.17000000	    -10.69171449	     -4.45518991	     -0.38538882	      0.09314159	      0.96392820	      0.05191614	     18.39635566	      9.68311567	      3.09675591	    -18.61220497	      8.83910156	      0.00000000	      0.00000000	     29.30110676	     -9.13632392	     -4.81907725	    -57.48440261	      1.07772127	      0.00000000	      0.00000000	      7.64392675	      3.40303428	      0.17912346
      4.18000000	    -10.66662530	     -4.29192300	     -0.32027578	      0.09189936	      0.96452108	      0.05239187	     17.84340469	      9.52825110	      3.08752911	    -18.41045054	      8.92067821	      0.00000000	      0.00000000	     29.86925574	     -8.90567146	     -4.84515937	    -55.97380997	      2.03431140	      0.00000000	      0.00000000	      7.55886028	      3.17016456	      0.37036989
      4.19000000	    -10.70656629	     -4.09884811	     -0.28817001	      0.09058983	      0.96499808	      0.05289980	     17.32007555	      9.35215660	      3.10469281	    -18.11368088	      9.04308642	      0.00000000	      0.00000000	     30.43987762	     -8.63593272	     -4.86838292	    -54.27314228	      2.80924218	      0.00000000	      0.00000000	      7.52983312	      2.89772288	      0.54026534
      4.20000000	    -10.75102950	     -3.91251519	     -0.25053532	      0.08926482	      0.96539986	      0.05327485	     16.84308891	      9.17776549	      3.15644780	    -17.89923950	      9.17482966	      0.00000000	      0.00000000	     30.96346144	     -8.33554391	     -4.84994630	    -52.43263457	      3.43109670	      0.00000000	      0.00000000	      7.50582990	      2.65031677	      0.75776118
      4.21000000	    -10.81513775	     -3.69066298	     -0.25350465	      0.08785294	      0.96569696	      0.05355249	     16.40203958	      8.96455881	      3.24748358	    -17.70135916	      9.33165134	      0.00000000	      0.00000000	     31.44064195	     -7.97770807	     -4.79955875	    -50.44593913	      3.95647489	      0.00000000	      0.00000000	      7.47903696	      2.39065429	      0.98819376
      4.22000000	    -10.86975809	     -3.42406225	     -0.29334953	      0.08637651	      0.96591003	      0.05377904	     16.00110772	      8.71259811	      3.37417058	    -17.60283986	      9.52212685	      0.00000000	      0.00000000	     31.84477572	     -7.56210491	     -4.73003357	    -48.33652806	      4.34914384	      0.00000000	      0.00000000	      7.41952308	      2.09560341	      1.26316297
      4.23000000	    -10.95649336	     -3.46337312	     -0.35780859	      0.08470549	      0.96587800	      0.05403843	     15.68721210	      8.79014955	      3.46499444	    -17.57394029	      9.67266522	      0.00000000	      0.00000000	     32.37186736	     -7.46161228	     -4.46782036	    -46.33051157	      4.53359190	      0.00000000	      0.00000000	      7.36068021	      2.16704258	      1.50792555
      4.24000000	    -11.07730418	     -2.99339828	     -0.43730524	      0.08328539	      0.96589480	      0.05408688	     15.33549425	      8.31822535	      3.69651631	    -17.43131092	      9.92241558	      0.00000000	      0.00000000	     32.65799719	     -6.80918259	     -4.37823875	    -43.92322963	      4.73549535	      0.00000000	      0.00000000	      7.37958553	      1.66277856	      1.80765418
      4.25000000	    -11.18072041	     -3.03342799	     -0.54729417	      0.08158165	      0.96563268	      0.05424740	     15.07424569	      8.40368655	      3.82959829	    -17.46340557	     10.10086359	      0.00000000	      0.00000000	     33.11323290	     -6.70772670	     -4.04764340	    -41.81503923	      4.82219942	      0.00000000	      0.00000000	      7.31406705	      1.76840804	      2.06301668
      4.26000000	    -11.29161049	     -2.52127267	     -0.71634008	      0.08001410	      0.96545742	      0.05430411	     14.82798766	      7.90428843	      4.09384907	    -17.54900335	     10.46383313	      0.00000000	      0.00000000	     33.28016925	     -6.06725636	     -3.95090066	    -39.24146304	      4.59365840	      0.00000000	      0.00000000	      7.28671323	      1.23889176	      2.38940490
      4.27000000	    -11.42468851	     -2.63380911	     -0.86002004	      0.07830967	      0.96493279	      0.05436064	     14.59933520	      8.06061107	      4.23925215	    -17.58381499	     10.63936664	      0.00000000	      0.00000000	     33.71531132	     -6.05365881	     -3.54150947	    -37.12855776	      4.65256168	      0.00000000	      0.00000000	      7.24535550	      1.45247300	      2.63073694
      4.28000000	    -11.61466292	     -2.19877153	     -1.00578693	      0.07682811	      0.96448801	      0.05433327	     14.39119516	      7.63269722	      4.54957908	    -17.56496773	     10.93194974	      0.00000000	      0.00000000	     33.91147538	     -5.50856851	     -3.36090717	    -34.53224898	      4.20992456	      0.00000000	      0.00000000	      7.32093214	      1.02240355	      2.86613971
      4.29000000	    -11.76912596	     -2.05684546	     -1.20554335	      0.07522990	      0.96385997	      0.05439531	     14.20478575	      7.52938629	      4.77367403	    -17.66733972	     11.22795363	      0.00000000	      0.00000000	     34.16036249	     -5.31527038	     -3.12544658	    -32.15062002	      3.88497791	      0.00000000	      0.00000000	      7.31460372	      0.94807306	      3.07190614
      4.30000000	    -11.91233341	     -2.20853884	     -1.39309520	      0.07356299	      0.96305944	      0.05448620	     14.02913828	      7.73208363	      4.84850323	    -17.79235701	     11.42157446	      0.00000000	      0.00000000	     34.52098202	     -5.43043927	     -2.82094444	    -30.07665690	      3.89212958	      0.00000000	      0.00000000	      7.26993536	      1.21033750	      3.22335835
      4.31000000	    -12.10490247	     -1.80610436	     -1.61835312	      0.07217255	      0.96239002	      0.05449600	     13.86652507	      7.34575656	      5.14009422	    -17.88001219	     11.77172942	      0.00000000	      0.00000000	     34.56975183	     -5.04563987	     -2.81888599	    -27.37103561	      3.02210601	      0.00000000	      0.00000000	      7.34948751	      0.84170992	      3.40558889
      4.32000000	    -12.25859355	     -1.69523337	     -1.86018301	      0.07074668	      0.96155206	      0.05457059	     13.66631024	      7.27095300	      5.33855962	    -17.97764378	     12.09878603	      0.00000000	      0.00000000	     34.71639246	     -4.98038781	     -2.78005782	    -25.02552352	      2.53612814	      0.00000000	      0.00000000	      7.35815593	      0.81108639	      3.54983646
      4.33000000	    -12.44625010	     -1.85312531	     -2.05148990	      0.06933965	      0.96052208	      0.05458564	     13.47433593	      7.46328195	      5.39992953	    -18.02620195	     12.32511417	      0.00000000	      0.00000000	     35.02751919	     -5.15959841	     -2.65175453	    -23.01516845	      2.51770462	      0.00000000	      0.00000000	      7.39628968	      1.08755561	      3.54721170
      4.34000000	    -12.61159739	     -1.58463719	     -2.32780483	      0.06806081	      0.95968579	      0.05463894	     13.25598762	      7.20865458	      5.62067873	    -18.07069640	     12.63650480	      0.00000000	      0.00000000	     35.03795376	     -4.99782669	     -2.85515546	    -20.53768226	      1.52019407	      0.00000000	      0.00000000	      7.44234376	      0.87542828	      3.68404113
